<svg xmlns="http://www.w3.org/2000/svg" viewBox="0 0 32 32" width="32" height="32">
  <rect width="32" height="32" rx="6" fill="#0F172A"/>
  <!-- Shield -->
  <path d="M16 4L6 8.5v5.5c0 5.8 4.2 11.2 10 12.5 5.8-1.3 10-6.7 10-12.5V8.5L16 4z" fill="none" stroke="#10B981" stroke-width="1.5" stroke-linejoin="round"/>
  <path d="M16 4L6 8.5v5.5c0 5.8 4.2 11.2 10 12.5 5.8-1.3 10-6.7 10-12.5V8.5L16 4z" fill="rgba(16,185,129,0.12)"/>
  <!-- Neural node center -->
  <circle cx="16" cy="14" r="2.5" fill="#10B981"/>
  <!-- Neural connections -->
  <line x1="16" y1="8" x2="16" y2="11.5" stroke="#10B981" stroke-width="1.2" stroke-linecap="round" opacity="0.7"/>
  <line x1="11.5" y1="11" x2="13.8" y2="12.5" stroke="#10B981" stroke-width="1" stroke-linecap="round" opacity="0.7"/>
  <line x1="20.5" y1="11" x2="18.2" y2="12.5" stroke="#10B981" stroke-width="1" stroke-linecap="round" opacity="0.7"/>
  <line x1="11.5" y1="17.5" x2="13.8" y2="15.8" stroke="#10B981" stroke-width="1" stroke-linecap="round" opacity="0.7"/>
  <line x1="20.5" y1="17.5" x2="18.2" y2="15.8" stroke="#10B981" stroke-width="1" stroke-linecap="round" opacity="0.7"/>
  <line x1="16" y1="16.5" x2="16" y2="20" stroke="#10B981" stroke-width="1.2" stroke-linecap="round" opacity="0.7"/>
  <!-- Outer nodes -->
  <circle cx="16" cy="7" r="1.2" fill="#34D399" opacity="0.8"/>
  <circle cx="10.5" cy="10.5" r="1" fill="#34D399" opacity="0.7"/>
  <circle cx="21.5" cy="10.5" r="1" fill="#34D399" opacity="0.7"/>
  <circle cx="10.5" cy="18" r="1" fill="#34D399" opacity="0.7"/>
  <circle cx="21.5" cy="18" r="1" fill="#34D399" opacity="0.7"/>
  <circle cx="16" cy="21" r="1.2" fill="#34D399" opacity="0.8"/>
</svg>
